<mxfile host="app.diagrams.net" modified="2023-11-09T13:18:11.043Z" agent="Mozilla/5.0 (Windows NT 10.0; Win64; x64) AppleWebKit/537.36 (KHTML, like Gecko) Chrome/119.0.0.0 Safari/537.36" etag="5DBc2nTI2mq2xVHkek0T" version="22.1.0" type="device">
  <diagram name="Page-1" id="ul_Ds49SjVIBj_ef4BOn">
    <mxGraphModel dx="1877" dy="1750" grid="1" gridSize="10" guides="1" tooltips="1" connect="1" arrows="1" fold="1" page="1" pageScale="1" pageWidth="827" pageHeight="1169" math="0" shadow="0">
      <root>
        <mxCell id="0" />
        <mxCell id="1" parent="0" />
        <mxCell id="TwI9juiyHvKHxiTiBeKR-1" style="edgeStyle=orthogonalEdgeStyle;rounded=0;orthogonalLoop=1;jettySize=auto;html=1;" parent="1" source="TwI9juiyHvKHxiTiBeKR-6" target="TwI9juiyHvKHxiTiBeKR-5" edge="1">
          <mxGeometry relative="1" as="geometry">
            <mxPoint x="370" y="210" as="sourcePoint" />
          </mxGeometry>
        </mxCell>
        <mxCell id="TwI9juiyHvKHxiTiBeKR-2" value="class:&lt;b style=&quot;border-color: var(--border-color);&quot;&gt;isClassifiedBy&lt;/b&gt;" style="edgeLabel;html=1;align=center;verticalAlign=middle;resizable=0;points=[];" parent="TwI9juiyHvKHxiTiBeKR-1" vertex="1" connectable="0">
          <mxGeometry x="0.0792" y="-2" relative="1" as="geometry">
            <mxPoint as="offset" />
          </mxGeometry>
        </mxCell>
        <mxCell id="TwI9juiyHvKHxiTiBeKR-5" value="fs:Process" style="graphMlID=n4;shape=rect;rounded=1;arcsize=30;fillColor=#ffff00;strokeColor=#000000;strokeWidth=1.0;fontStyle=1" parent="1" vertex="1">
          <mxGeometry x="581.5" y="100" width="147.01" height="44" as="geometry" />
        </mxCell>
        <mxCell id="TwI9juiyHvKHxiTiBeKR-6" value="fs:Activity&#xa;(Sports Bettings)" style="graphMlID=n4;shape=rect;rounded=1;arcsize=30;fillColor=#ffff00;strokeColor=#000000;strokeWidth=1.0;fontStyle=1" parent="1" vertex="1">
          <mxGeometry x="310" y="100" width="130" height="44" as="geometry" />
        </mxCell>
        <mxCell id="TwI9juiyHvKHxiTiBeKR-8" value="" style="endArrow=classic;html=1;textDirection=ltr;rounded=0;exitX=0.842;exitY=1.027;exitDx=0;exitDy=0;exitPerimeter=0;entryX=0.315;entryY=0;entryDx=0;entryDy=0;entryPerimeter=0;" parent="1" target="TwI9juiyHvKHxiTiBeKR-10" edge="1">
          <mxGeometry width="50" height="50" relative="1" as="geometry">
            <mxPoint x="403" y="144" as="sourcePoint" />
            <mxPoint x="700" y="210" as="targetPoint" />
          </mxGeometry>
        </mxCell>
        <mxCell id="TwI9juiyHvKHxiTiBeKR-9" value="ap:&lt;b&gt;hasParticipant&lt;/b&gt;" style="edgeLabel;html=1;align=center;verticalAlign=middle;resizable=0;points=[];" parent="TwI9juiyHvKHxiTiBeKR-8" vertex="1" connectable="0">
          <mxGeometry x="-0.1066" y="5" relative="1" as="geometry">
            <mxPoint as="offset" />
          </mxGeometry>
        </mxCell>
        <mxCell id="me0y0aQ_3NXv7RpqOi4B-11" style="edgeStyle=orthogonalEdgeStyle;rounded=0;orthogonalLoop=1;jettySize=auto;html=1;exitX=1;exitY=0.5;exitDx=0;exitDy=0;entryX=1;entryY=0.75;entryDx=0;entryDy=0;" edge="1" parent="1" source="TwI9juiyHvKHxiTiBeKR-10" target="TwI9juiyHvKHxiTiBeKR-20">
          <mxGeometry relative="1" as="geometry">
            <Array as="points">
              <mxPoint x="840" y="240" />
              <mxPoint x="840" y="493" />
            </Array>
          </mxGeometry>
        </mxCell>
        <mxCell id="TwI9juiyHvKHxiTiBeKR-10" value="&#xa;foaf:Person&#xa;(Participant)&#xa;" style="graphMlID=n4;shape=rect;rounded=1;arcsize=30;fillColor=#ffff00;strokeColor=#000000;strokeWidth=1.0;fontStyle=1" parent="1" vertex="1">
          <mxGeometry x="681" y="220" width="91.97" height="40" as="geometry" />
        </mxCell>
        <mxCell id="TwI9juiyHvKHxiTiBeKR-34" style="edgeStyle=orthogonalEdgeStyle;rounded=0;orthogonalLoop=1;jettySize=auto;html=1;exitX=0.5;exitY=1;exitDx=0;exitDy=0;entryX=0;entryY=0.75;entryDx=0;entryDy=0;" parent="1" source="TwI9juiyHvKHxiTiBeKR-11" target="TwI9juiyHvKHxiTiBeKR-20" edge="1">
          <mxGeometry relative="1" as="geometry" />
        </mxCell>
        <mxCell id="TwI9juiyHvKHxiTiBeKR-35" value="seq:&lt;b&gt;precedes&lt;/b&gt;" style="edgeLabel;html=1;align=center;verticalAlign=middle;resizable=0;points=[];" parent="TwI9juiyHvKHxiTiBeKR-34" vertex="1" connectable="0">
          <mxGeometry x="-0.0872" y="-3" relative="1" as="geometry">
            <mxPoint as="offset" />
          </mxGeometry>
        </mxCell>
        <mxCell id="Q6AYP_d7D0vupeWgvhNM-20" style="edgeStyle=orthogonalEdgeStyle;rounded=0;orthogonalLoop=1;jettySize=auto;html=1;exitX=0.5;exitY=0;exitDx=0;exitDy=0;entryX=0.5;entryY=1;entryDx=0;entryDy=0;" parent="1" source="TwI9juiyHvKHxiTiBeKR-11" target="TwI9juiyHvKHxiTiBeKR-6" edge="1">
          <mxGeometry relative="1" as="geometry">
            <Array as="points">
              <mxPoint x="375" y="290" />
            </Array>
          </mxGeometry>
        </mxCell>
        <mxCell id="Q6AYP_d7D0vupeWgvhNM-21" value="prov:&lt;b style=&quot;border-color: var(--border-color);&quot;&gt;generatedBy&lt;/b&gt;" style="edgeLabel;html=1;align=center;verticalAlign=middle;resizable=0;points=[];" parent="Q6AYP_d7D0vupeWgvhNM-20" vertex="1" connectable="0">
          <mxGeometry x="-0.0384" y="3" relative="1" as="geometry">
            <mxPoint x="3" y="-30" as="offset" />
          </mxGeometry>
        </mxCell>
        <mxCell id="O0DyRC1jyl6W-TxlB_9I-3" style="edgeStyle=orthogonalEdgeStyle;rounded=0;orthogonalLoop=1;jettySize=auto;html=1;exitX=0;exitY=1;exitDx=0;exitDy=0;entryX=0.5;entryY=0;entryDx=0;entryDy=0;" parent="1" edge="1">
          <mxGeometry relative="1" as="geometry">
            <mxPoint x="189.99500000000012" y="550" as="targetPoint" />
            <mxPoint x="314.01" y="334" as="sourcePoint" />
            <Array as="points">
              <mxPoint x="334.01" y="334" />
              <mxPoint x="334.01" y="422" />
              <mxPoint x="190.01" y="422" />
            </Array>
          </mxGeometry>
        </mxCell>
        <mxCell id="O0DyRC1jyl6W-TxlB_9I-4" value="res:&lt;b&gt;hasMemberEvent&lt;/b&gt;" style="edgeLabel;html=1;align=center;verticalAlign=middle;resizable=0;points=[];" parent="O0DyRC1jyl6W-TxlB_9I-3" vertex="1" connectable="0">
          <mxGeometry x="-0.0195" y="1" relative="1" as="geometry">
            <mxPoint as="offset" />
          </mxGeometry>
        </mxCell>
        <mxCell id="TwI9juiyHvKHxiTiBeKR-11" value="fs:Sequence&#xa;(past football team matches)" style="graphMlID=n4;shape=rect;rounded=1;arcsize=30;fillColor=#ffff00;strokeColor=#000000;strokeWidth=1.0;fontStyle=1" parent="1" vertex="1">
          <mxGeometry x="300" y="290" width="180" height="44" as="geometry" />
        </mxCell>
        <mxCell id="TwI9juiyHvKHxiTiBeKR-23" style="edgeStyle=orthogonalEdgeStyle;rounded=0;orthogonalLoop=1;jettySize=auto;html=1;exitX=0.5;exitY=0;exitDx=0;exitDy=0;entryX=0.5;entryY=1;entryDx=0;entryDy=0;" parent="1" source="TwI9juiyHvKHxiTiBeKR-20" target="TwI9juiyHvKHxiTiBeKR-14" edge="1">
          <mxGeometry relative="1" as="geometry">
            <mxPoint x="115" y="660.7999877929688" as="sourcePoint" />
          </mxGeometry>
        </mxCell>
        <mxCell id="TwI9juiyHvKHxiTiBeKR-24" value="hfo:&lt;b&gt;hasOutcome&lt;/b&gt;" style="edgeLabel;html=1;align=center;verticalAlign=middle;resizable=0;points=[];" parent="TwI9juiyHvKHxiTiBeKR-23" vertex="1" connectable="0">
          <mxGeometry x="-0.1849" y="-2" relative="1" as="geometry">
            <mxPoint x="-133" as="offset" />
          </mxGeometry>
        </mxCell>
        <mxCell id="TwI9juiyHvKHxiTiBeKR-25" style="edgeStyle=orthogonalEdgeStyle;rounded=0;orthogonalLoop=1;jettySize=auto;html=1;" parent="1" source="TwI9juiyHvKHxiTiBeKR-14" edge="1">
          <mxGeometry relative="1" as="geometry">
            <mxPoint x="-100" y="312" as="targetPoint" />
          </mxGeometry>
        </mxCell>
        <mxCell id="TwI9juiyHvKHxiTiBeKR-27" value="dul:&lt;b&gt;hasQuality&lt;/b&gt;" style="edgeLabel;html=1;align=center;verticalAlign=middle;resizable=0;points=[];" parent="TwI9juiyHvKHxiTiBeKR-25" vertex="1" connectable="0">
          <mxGeometry x="-0.0759" y="3" relative="1" as="geometry">
            <mxPoint as="offset" />
          </mxGeometry>
        </mxCell>
        <mxCell id="TwI9juiyHvKHxiTiBeKR-14" value="cn5:Outcome" style="graphMlID=n4;shape=rect;rounded=1;arcsize=30;fillColor=#ffff00;strokeColor=#000000;strokeWidth=1.0;fontStyle=1" parent="1" vertex="1">
          <mxGeometry x="60" y="290" width="90" height="44" as="geometry" />
        </mxCell>
        <mxCell id="Q6AYP_d7D0vupeWgvhNM-22" style="edgeStyle=orthogonalEdgeStyle;rounded=0;orthogonalLoop=1;jettySize=auto;html=1;exitX=0.5;exitY=1;exitDx=0;exitDy=0;entryX=0;entryY=0.75;entryDx=0;entryDy=0;" parent="1" source="TwI9juiyHvKHxiTiBeKR-20" target="TwI9juiyHvKHxiTiBeKR-6" edge="1">
          <mxGeometry relative="1" as="geometry" />
        </mxCell>
        <mxCell id="Q6AYP_d7D0vupeWgvhNM-23" value="pof:&lt;b&gt;isPartOf&lt;/b&gt;" style="edgeLabel;html=1;align=center;verticalAlign=middle;resizable=0;points=[];" parent="Q6AYP_d7D0vupeWgvhNM-22" vertex="1" connectable="0">
          <mxGeometry x="0.695" y="2" relative="1" as="geometry">
            <mxPoint as="offset" />
          </mxGeometry>
        </mxCell>
        <mxCell id="me0y0aQ_3NXv7RpqOi4B-8" style="edgeStyle=orthogonalEdgeStyle;rounded=0;orthogonalLoop=1;jettySize=auto;html=1;exitX=0.25;exitY=1;exitDx=0;exitDy=0;entryX=1;entryY=0.75;entryDx=0;entryDy=0;" edge="1" parent="1" source="TwI9juiyHvKHxiTiBeKR-20" target="O0DyRC1jyl6W-TxlB_9I-5">
          <mxGeometry relative="1" as="geometry">
            <Array as="points">
              <mxPoint x="485" y="585" />
            </Array>
          </mxGeometry>
        </mxCell>
        <mxCell id="TwI9juiyHvKHxiTiBeKR-20" value="fs:Event&#xa;(football team match)" style="graphMlID=n4;shape=rect;rounded=1;arcsize=30;fillColor=#ffff00;strokeColor=#000000;strokeWidth=1.0;fontStyle=1" parent="1" vertex="1">
          <mxGeometry x="450" y="460" width="140" height="44" as="geometry" />
        </mxCell>
        <mxCell id="TwI9juiyHvKHxiTiBeKR-47" style="edgeStyle=orthogonalEdgeStyle;rounded=0;orthogonalLoop=1;jettySize=auto;html=1;" parent="1" target="TwI9juiyHvKHxiTiBeKR-26" edge="1">
          <mxGeometry relative="1" as="geometry">
            <mxPoint x="680" y="240" as="sourcePoint" />
            <Array as="points">
              <mxPoint x="645" y="240" />
              <mxPoint x="645" y="760" />
              <mxPoint x="-140" y="760" />
            </Array>
            <mxPoint x="-139.9950000000001" y="444" as="targetPoint" />
          </mxGeometry>
        </mxCell>
        <mxCell id="TwI9juiyHvKHxiTiBeKR-48" value="hfo:&lt;b&gt;believesIn&lt;/b&gt;" style="edgeLabel;html=1;align=center;verticalAlign=middle;resizable=0;points=[];" parent="TwI9juiyHvKHxiTiBeKR-47" vertex="1" connectable="0">
          <mxGeometry x="0.013" relative="1" as="geometry">
            <mxPoint x="-76" as="offset" />
          </mxGeometry>
        </mxCell>
        <mxCell id="TwI9juiyHvKHxiTiBeKR-26" value="fs:SuccessOrFailure&#xa;(Victory)" style="graphMlID=n4;shape=rect;rounded=1;arcsize=30;fillColor=#ffff00;strokeColor=#000000;strokeWidth=1.0;fontStyle=1" parent="1" vertex="1">
          <mxGeometry x="-220" y="290" width="121.97" height="44" as="geometry" />
        </mxCell>
        <mxCell id="Q6AYP_d7D0vupeWgvhNM-6" style="edgeStyle=orthogonalEdgeStyle;rounded=0;orthogonalLoop=1;jettySize=auto;html=1;exitX=0.5;exitY=0;exitDx=0;exitDy=0;entryX=0.5;entryY=1;entryDx=0;entryDy=0;" parent="1" source="Q6AYP_d7D0vupeWgvhNM-1" target="TwI9juiyHvKHxiTiBeKR-10" edge="1">
          <mxGeometry relative="1" as="geometry" />
        </mxCell>
        <mxCell id="Q6AYP_d7D0vupeWgvhNM-1" value="fs:Opinion&#xa;(Judgement)" style="graphMlID=n4;shape=rect;rounded=1;arcsize=30;fillColor=#ffff00;strokeColor=#000000;strokeWidth=1.0;fontStyle=1" parent="1" vertex="1">
          <mxGeometry x="686" y="350" width="81.96822102864604" height="44" as="geometry" />
        </mxCell>
        <mxCell id="Q6AYP_d7D0vupeWgvhNM-13" value="pof:&lt;b&gt;isPartOf&lt;/b&gt;" style="edgeLabel;html=1;align=center;verticalAlign=middle;resizable=0;points=[];" parent="1" vertex="1" connectable="0">
          <mxGeometry x="720" y="300" as="geometry" />
        </mxCell>
        <mxCell id="Q6AYP_d7D0vupeWgvhNM-16" value="" style="endArrow=classic;html=1;textDirection=ltr;rounded=0;entryX=1;entryY=0.5;entryDx=0;entryDy=0;exitX=0;exitY=0.5;exitDx=0;exitDy=0;" parent="1" source="Q6AYP_d7D0vupeWgvhNM-1" target="TwI9juiyHvKHxiTiBeKR-11" edge="1">
          <mxGeometry width="50" height="50" relative="1" as="geometry">
            <mxPoint x="627.95" y="311.5" as="sourcePoint" />
            <mxPoint x="480" y="311.5" as="targetPoint" />
          </mxGeometry>
        </mxCell>
        <mxCell id="Q6AYP_d7D0vupeWgvhNM-17" value="aff&lt;b&gt;:influencedBy&lt;/b&gt;" style="text;html=1;align=center;verticalAlign=middle;resizable=0;points=[];labelBackgroundColor=#ffffff;rotation=0;" parent="Q6AYP_d7D0vupeWgvhNM-16" vertex="1" connectable="0">
          <mxGeometry x="-0.2211" relative="1" as="geometry">
            <mxPoint x="-15" y="-9" as="offset" />
          </mxGeometry>
        </mxCell>
        <mxCell id="Q6AYP_d7D0vupeWgvhNM-24" value="" style="strokeWidth=1;html=1;shape=mxgraph.flowchart.annotation_2;align=left;labelPosition=right;pointerEvents=1;" parent="1" vertex="1">
          <mxGeometry x="900" y="70" width="50" height="100" as="geometry" />
        </mxCell>
        <mxCell id="Q6AYP_d7D0vupeWgvhNM-25" value="dbo:Randomness" style="graphMlID=n4;shape=rect;rounded=1;arcsize=30;fillColor=#ffff00;strokeColor=#000000;strokeWidth=1.0;fontStyle=1" parent="1" vertex="1">
          <mxGeometry x="950" y="56" width="104.93" height="44" as="geometry" />
        </mxCell>
        <mxCell id="Q6AYP_d7D0vupeWgvhNM-26" value="fs:Possibilities&#xa;(chance-based)" style="graphMlID=n4;shape=rect;rounded=1;arcsize=30;fillColor=#ffff00;strokeColor=#000000;strokeWidth=1.0;fontStyle=1" parent="1" vertex="1">
          <mxGeometry x="950" y="144" width="100" height="44" as="geometry" />
        </mxCell>
        <mxCell id="Q6AYP_d7D0vupeWgvhNM-27" value="" style="line;strokeWidth=1;html=1;" parent="1" vertex="1">
          <mxGeometry x="728.51" y="115" width="171.49" height="10" as="geometry" />
        </mxCell>
        <mxCell id="Q6AYP_d7D0vupeWgvhNM-28" value="dul:h&lt;b&gt;asQuality&lt;/b&gt;" style="text;whiteSpace=wrap;html=1;" parent="1" vertex="1">
          <mxGeometry x="773.89" y="100" width="80.74" height="20" as="geometry" />
        </mxCell>
        <mxCell id="Q6AYP_d7D0vupeWgvhNM-30" style="edgeStyle=orthogonalEdgeStyle;rounded=0;orthogonalLoop=1;jettySize=auto;html=1;entryX=0.505;entryY=1.159;entryDx=0;entryDy=0;entryPerimeter=0;" parent="1" source="TwI9juiyHvKHxiTiBeKR-26" edge="1">
          <mxGeometry relative="1" as="geometry">
            <mxPoint x="-158.60604838053382" y="210.99599999999998" as="targetPoint" />
          </mxGeometry>
        </mxCell>
        <mxCell id="Q6AYP_d7D0vupeWgvhNM-32" value="rdf:&lt;b&gt;type&lt;/b&gt;" style="edgeLabel;html=1;align=center;verticalAlign=middle;resizable=0;points=[];" parent="Q6AYP_d7D0vupeWgvhNM-30" vertex="1" connectable="0">
          <mxGeometry x="-0.0239" y="-1" relative="1" as="geometry">
            <mxPoint x="-1" y="-1" as="offset" />
          </mxGeometry>
        </mxCell>
        <mxCell id="Q6AYP_d7D0vupeWgvhNM-31" value="xsd:string&#xa;(&quot;success)" style="graphMlID=n6;shape=parallelogram;fillColor=#ccffcc;strokeColor=#000000;strokeWidth=1.0;fontStyle=1" parent="1" vertex="1">
          <mxGeometry x="-210" y="170" width="126.0949682107173" height="43" as="geometry" />
        </mxCell>
        <mxCell id="Q6AYP_d7D0vupeWgvhNM-33" value="xsd:boolean&#xa;(true)" style="graphMlID=n6;shape=parallelogram;fillColor=#ccffcc;strokeColor=#000000;strokeWidth=1.0;fontStyle=1" parent="1" vertex="1">
          <mxGeometry x="480" y="630" width="126.0949682107173" height="43" as="geometry" />
        </mxCell>
        <mxCell id="Q6AYP_d7D0vupeWgvhNM-34" style="edgeStyle=orthogonalEdgeStyle;rounded=0;orthogonalLoop=1;jettySize=auto;html=1;exitX=0.75;exitY=1;exitDx=0;exitDy=0;entryX=0.588;entryY=0.07;entryDx=0;entryDy=0;entryPerimeter=0;" parent="1" source="TwI9juiyHvKHxiTiBeKR-20" target="Q6AYP_d7D0vupeWgvhNM-33" edge="1">
          <mxGeometry relative="1" as="geometry" />
        </mxCell>
        <mxCell id="Q6AYP_d7D0vupeWgvhNM-35" value="res:&lt;b style=&quot;border-color: var(--border-color); font-size: 12px;&quot;&gt;isTheNextEvent&lt;/b&gt;" style="edgeLabel;html=1;align=center;verticalAlign=middle;resizable=0;points=[];" parent="Q6AYP_d7D0vupeWgvhNM-34" vertex="1" connectable="0">
          <mxGeometry x="-0.1071" y="-1" relative="1" as="geometry">
            <mxPoint as="offset" />
          </mxGeometry>
        </mxCell>
        <mxCell id="O0DyRC1jyl6W-TxlB_9I-8" style="edgeStyle=orthogonalEdgeStyle;rounded=0;orthogonalLoop=1;jettySize=auto;html=1;exitX=0.5;exitY=1;exitDx=0;exitDy=0;" parent="1" source="O0DyRC1jyl6W-TxlB_9I-5" edge="1">
          <mxGeometry relative="1" as="geometry">
            <mxPoint x="176" y="691" as="targetPoint" />
            <mxPoint x="175.98500000000013" y="607" as="sourcePoint" />
          </mxGeometry>
        </mxCell>
        <mxCell id="e4WFakoNwPs_YKIt8jua-1" value="res:&lt;b style=&quot;border-color: var(--border-color);&quot;&gt;isPastEvent&lt;/b&gt;" style="edgeLabel;html=1;align=center;verticalAlign=middle;resizable=0;points=[];" parent="O0DyRC1jyl6W-TxlB_9I-8" vertex="1" connectable="0">
          <mxGeometry x="-0.0786" relative="1" as="geometry">
            <mxPoint as="offset" />
          </mxGeometry>
        </mxCell>
        <mxCell id="e4WFakoNwPs_YKIt8jua-2" style="edgeStyle=orthogonalEdgeStyle;rounded=0;orthogonalLoop=1;jettySize=auto;html=1;exitX=0;exitY=0.5;exitDx=0;exitDy=0;entryX=0.25;entryY=1;entryDx=0;entryDy=0;" parent="1" source="O0DyRC1jyl6W-TxlB_9I-5" target="TwI9juiyHvKHxiTiBeKR-14" edge="1">
          <mxGeometry relative="1" as="geometry">
            <mxPoint x="-20" y="573" as="targetPoint" />
          </mxGeometry>
        </mxCell>
        <mxCell id="e4WFakoNwPs_YKIt8jua-3" value="hfo:&lt;b&gt;hasOutcome&lt;/b&gt;" style="edgeLabel;html=1;align=center;verticalAlign=middle;resizable=0;points=[];" parent="e4WFakoNwPs_YKIt8jua-2" vertex="1" connectable="0">
          <mxGeometry x="0.0844" y="3" relative="1" as="geometry">
            <mxPoint as="offset" />
          </mxGeometry>
        </mxCell>
        <mxCell id="O0DyRC1jyl6W-TxlB_9I-5" value="fs:Event&#xa;(football team match)" style="graphMlID=n4;shape=rect;rounded=1;arcsize=30;fillColor=#ffff00;strokeColor=#000000;strokeWidth=1.0;fontStyle=1" parent="1" vertex="1">
          <mxGeometry x="110" y="550" width="131.97" height="46" as="geometry" />
        </mxCell>
        <mxCell id="O0DyRC1jyl6W-TxlB_9I-6" value="xsd:boolean&#xa;(true)" style="graphMlID=n6;shape=parallelogram;fillColor=#ccffcc;strokeColor=#000000;strokeWidth=1.0;fontStyle=1" parent="1" vertex="1">
          <mxGeometry x="110" y="690" width="126.09" height="43" as="geometry" />
        </mxCell>
        <mxCell id="me0y0aQ_3NXv7RpqOi4B-1" value="Prefixes" style="graphMlID=n0;shape=swimlane;startSize=23;fillColor=#b7b69e;strokeColor=#000000;strokeWidth=1.0;align=right;spacingRight=10;fontStyle=1" vertex="1" parent="1">
          <mxGeometry x="-190" y="-210" width="707.5" height="275" as="geometry" />
        </mxCell>
        <mxCell id="me0y0aQ_3NXv7RpqOi4B-2" value="&lt;div style=&quot;text-align: left;&quot;&gt;&lt;b&gt;aff&lt;/b&gt;:&amp;nbsp;https://w3id.org/affectedBy&lt;/div&gt;&lt;div style=&quot;text-align: left;&quot;&gt;&lt;b&gt;ap:&amp;nbsp;&lt;/b&gt;http://descartes-core.org/ontologies/activities/1.0/ActivityPattern.owl&lt;/div&gt;&lt;div style=&quot;text-align: left;&quot;&gt;&lt;b style=&quot;font-weight: bold; background-color: initial;&quot;&gt;class&lt;/b&gt;&lt;span style=&quot;font-weight: normal; background-color: initial;&quot;&gt;: http://www.ontologydesignpatterns.org/cp/owl/classification.owl#&lt;/span&gt;&lt;/div&gt;&lt;div style=&quot;text-align: left;&quot;&gt;&lt;span style=&quot;background-color: initial;&quot;&gt;&lt;b&gt;cn5&lt;/b&gt;&lt;/span&gt;&lt;span style=&quot;font-weight: normal; background-color: initial;&quot;&gt;:&amp;nbsp;&lt;/span&gt;&lt;span style=&quot;background-color: initial;&quot;&gt;https:​/​/​w3id.​org/​framester/​conceptnet/​5.​7.​0/​c/​en/​&lt;/span&gt;&lt;/div&gt;&lt;div style=&quot;text-align: left;&quot;&gt;&lt;span style=&quot;background-color: initial;&quot;&gt;&lt;b&gt;dul:&lt;/b&gt;&lt;/span&gt;&lt;span style=&quot;font-weight: normal; background-color: initial;&quot;&gt;&amp;nbsp;&lt;/span&gt;&lt;span style=&quot;background-color: initial;&quot;&gt;http://www.ontologydesignpatterns.org/ont/dul/DUL.owl#&lt;/span&gt;&lt;/div&gt;&lt;div style=&quot;text-align: left;&quot;&gt;&lt;span style=&quot;background-color: initial;&quot;&gt;&lt;b&gt;dbo&lt;/b&gt;:&lt;/span&gt;&lt;span style=&quot;background-color: initial;&quot;&gt;http://dbpedia.org/ontology/&lt;/span&gt;&lt;/div&gt;&lt;div style=&quot;text-align: left;&quot;&gt;&lt;span style=&quot;background-color: initial;&quot;&gt;&lt;b&gt;foaf:&amp;nbsp;&lt;/b&gt;&lt;/span&gt;&lt;span style=&quot;background-color: initial;&quot;&gt;http://xmlns.com/foaf/0.1/&lt;/span&gt;&lt;/div&gt;&lt;div style=&quot;text-align: left;&quot;&gt;&lt;span style=&quot;background-color: initial;&quot;&gt;&lt;b&gt;fs&lt;/b&gt;:&lt;/span&gt;&lt;span style=&quot;background-color: initial; text-align: center;&quot;&gt;https://w3id.org/framester/data/framestercore/&lt;/span&gt;&lt;/div&gt;&lt;div style=&quot;text-align: left;&quot;&gt;&lt;span style=&quot;background-color: initial;&quot;&gt;&lt;b&gt;pof&lt;/b&gt;:&amp;nbsp;&lt;/span&gt;&lt;span style=&quot;background-color: initial;&quot;&gt;http://www.ontologydesignpatterns.org/cp/owl/partof.owl#&lt;/span&gt;&lt;/div&gt;&lt;div style=&quot;text-align: left;&quot;&gt;&lt;span style=&quot;background-color: initial;&quot;&gt;&lt;b&gt;prov&lt;/b&gt;:&lt;/span&gt;&lt;span style=&quot;background-color: initial;&quot;&gt;https://raw.githubusercontent.com/cogan-shimizu-wsu/ProvenanceOWL/master/EntityWithProvenanceOntologyPattern.owl#&amp;nbsp;&lt;/span&gt;&lt;/div&gt;&lt;div style=&quot;text-align: left;&quot;&gt;&lt;span style=&quot;background-color: initial;&quot;&gt;&lt;b&gt;rdfs&lt;/b&gt;:&amp;nbsp;&lt;/span&gt;&lt;span style=&quot;background-color: initial;&quot;&gt;https://www.w3.org/TR/rdf12-schema/&lt;/span&gt;&lt;/div&gt;&lt;div style=&quot;text-align: left;&quot;&gt;&lt;span style=&quot;background-color: initial;&quot;&gt;&lt;b&gt;res&lt;/b&gt;:&amp;nbsp;&lt;/span&gt;&lt;span style=&quot;background-color: initial;&quot;&gt;http://www.ontologydesignpatterns.org/cp/owl/recurrenteventseries.owl#&amp;nbsp;&lt;/span&gt;&lt;/div&gt;&lt;div style=&quot;text-align: left;&quot;&gt;&lt;span style=&quot;background-color: initial;&quot;&gt;&lt;b&gt;seq&lt;/b&gt;:&amp;nbsp;&lt;/span&gt;&lt;span style=&quot;background-color: initial;&quot;&gt;http://ontologydesignpatterns.org/cp/owl/sequence.owl#&lt;/span&gt;&lt;/div&gt;&lt;div style=&quot;text-align: left;&quot;&gt;&lt;span style=&quot;background-color: initial;&quot;&gt;&lt;b&gt;xsd:&lt;/b&gt;&lt;/span&gt;&lt;span style=&quot;background-color: initial;&quot;&gt;http://www.w3.org/2001/XMLSchema#&lt;/span&gt;&lt;/div&gt;&lt;div style=&quot;text-align: left;&quot;&gt;&lt;b style=&quot;background-color: initial;&quot;&gt;&lt;br&gt;&lt;/b&gt;&lt;/div&gt;" style="text;html=1;align=center;verticalAlign=middle;resizable=0;points=[];autosize=1;strokeColor=none;fillColor=none;" vertex="1" parent="me0y0aQ_3NXv7RpqOi4B-1">
          <mxGeometry y="36" width="710" height="230" as="geometry" />
        </mxCell>
        <mxCell id="me0y0aQ_3NXv7RpqOi4B-10" value="gfo:&lt;b&gt;isindependentFrom&lt;/b&gt;" style="text;html=1;align=center;verticalAlign=middle;resizable=0;points=[];labelBackgroundColor=#ffffff;rotation=0;" vertex="1" connectable="0" parent="1">
          <mxGeometry x="360" y="585" as="geometry" />
        </mxCell>
        <mxCell id="me0y0aQ_3NXv7RpqOi4B-12" value="gfo:h&lt;b&gt;asInfluencedOpinion&lt;/b&gt;" style="edgeLabel;html=1;align=center;verticalAlign=middle;resizable=0;points=[];" vertex="1" connectable="0" parent="1">
          <mxGeometry x="728.51" y="490" as="geometry" />
        </mxCell>
      </root>
    </mxGraphModel>
  </diagram>
</mxfile>
